<?xml version="1.0" encoding="UTF-8"?>
<svg version="1.1" xmlns="http://www.w3.org/2000/svg" width="471" height="471">
<path d="M0 0 C0.99 0.33 1.98 0.66 3 1 C3.07516846 1.72888428 3.15033691 2.45776855 3.2277832 3.20874023 C5.00784341 20.72266049 5.00784341 20.72266049 7.625 38.125 C7.74786377 38.82165771 7.87072754 39.51831543 7.99731445 40.23608398 C8.40015361 43.39357739 8.40015361 43.39357739 10 46 C12.79176046 46.30715447 15.57763591 46.56840716 18.375 46.8125 C57.14199021 50.63361911 93.43510575 66.30569516 122 93 C122.55703613 93.5146582 123.11407227 94.02931641 123.68798828 94.55957031 C155.93133626 124.63899547 175.33355643 166.14740519 179 210 C179.02763873 212.33316963 179.03593925 214.66694346 179 217 C180.76150391 217.20302734 180.76150391 217.20302734 182.55859375 217.41015625 C186.44212584 217.8948524 190.23122173 218.63288987 194.0625 219.4375 C204.59637071 221.54453283 215.30182804 222.21676107 226 223 C226 223.99 226 224.98 226 226 C224.12634766 226.14695313 224.12634766 226.14695313 222.21484375 226.296875 C212.16475884 227.14031377 202.24952319 228.32145483 192.3125 230.0625 C191.31532959 230.2368457 190.31815918 230.41119141 189.29077148 230.59082031 C184.50378901 231.3488062 184.50378901 231.3488062 180 233 C179.51802718 234.97871682 179.51802718 234.97871682 179.32421875 237.390625 C179.22149658 238.31697754 179.11877441 239.24333008 179.01293945 240.19775391 C178.90554443 241.20499512 178.79814941 242.21223633 178.6875 243.25 C173.85545246 283.39748343 157.34222624 318.32475898 130 348 C129.15695312 348.91523438 128.31390625 349.83046875 127.4453125 350.7734375 C96.3700671 383.07131551 53.7749301 398.69055092 10 403 C6.20356746 419.95494145 3.87718133 436.64104325 3 454 C2.01 454 1.02 454 0 454 C-0.06993164 453.1656543 -0.13986328 452.33130859 -0.21191406 451.47167969 C-1.61373991 435.08699498 -3.24129095 419.04606248 -7 403 C-7.63800537 402.93006836 -8.27601074 402.86013672 -8.93334961 402.78808594 C-49.95809704 398.20563233 -91.0605746 385.08464152 -120.46484375 354.52905273 C-122.14671881 352.79317241 -122.14671881 352.79317241 -124.875 350.75 C-129.64283087 346.88247762 -133.19966291 341.77645107 -137 337 C-137.6496875 336.23945313 -138.299375 335.47890625 -138.96875 334.6953125 C-163.17196164 306.02839379 -173.87368222 269.73423389 -177 233 C-189.90216506 230.07174364 -202.69697378 228.2166567 -215.87988281 227.03979492 C-217.61383301 226.8770105 -217.61383301 226.8770105 -219.3828125 226.7109375 C-220.41809082 226.62118652 -221.45336914 226.53143555 -222.52001953 226.43896484 C-225 226 -225 226 -227 224 C-224.3360001 222.66800005 -221.99382253 222.62459658 -219.0234375 222.3515625 C-217.80188965 222.23466064 -216.5803418 222.11775879 -215.32177734 221.99731445 C-214.01934082 221.87445068 -212.7169043 221.75158691 -211.375 221.625 C-201.73161199 220.68981817 -192.25394835 219.55587845 -182.7734375 217.55078125 C-180 217 -180 217 -177 217 C-176.98582031 216.20722656 -176.97164062 215.41445312 -176.95703125 214.59765625 C-175.89051442 188.51123119 -168.53953662 162.83381837 -156 140 C-155.67386719 139.39075684 -155.34773438 138.78151367 -155.01171875 138.15380859 C-133.78971182 98.55278272 -96.14874242 67.92445201 -53.32714844 54.46264648 C-37.9809783 49.84687439 -22.93892265 47.36298634 -7 46 C-4.30325219 33.81227082 -2.39248455 21.82432623 -1.39453125 9.37890625 C-1.13479204 6.1902215 -0.7369381 3.12077264 0 0 Z M31 100 C31.66759033 104.07634704 33.76665857 107.33808975 35.875 110.8125 C36.27283691 111.46976074 36.67067383 112.12702148 37.08056641 112.80419922 C41.62761887 120.18810622 46.67593532 127.16018737 52 134 C52.41411133 134.53270508 52.82822266 135.06541016 53.25488281 135.61425781 C65.51917626 151.17255813 79.95669701 165.38404959 96 177 C97.1720758 177.86691609 98.34394769 178.73410791 99.515625 179.6015625 C111.50002913 189.58967487 111.50002913 189.58967487 125 195 C122.16230669 168.0239535 103.16164074 142.99769822 83.1875 125.8125 C70.10740341 115.29448419 48.58252542 100 31 100 Z M-54 109 C-55.09477661 109.49790039 -55.09477661 109.49790039 -56.21166992 110.00585938 C-60.14605934 111.86766457 -63.11485965 113.63400292 -66 117 C-63.38308836 119.67470955 -60.75518292 122.33834481 -58.125 125 C-57.37863281 125.763125 -56.63226563 126.52625 -55.86328125 127.3125 C-54.79013672 128.3953125 -54.79013672 128.3953125 -53.6953125 129.5 C-53.03547363 130.1703125 -52.37563477 130.840625 -51.69580078 131.53125 C-50.12193881 133.21823007 -50.12193881 133.21823007 -48 133 C-46.19533501 130.66061945 -44.52138307 128.32298133 -42.875 125.875 C-42.38797607 125.15812012 -41.90095215 124.44124023 -41.39916992 123.70263672 C-33.25736302 112.97546676 -33.25736302 112.97546676 -29 101 C-37.81995325 101 -46.10755294 105.35590195 -54 109 Z M-107 157 C-114.04847693 166.83948457 -121.03603918 180.94619049 -123 193 C-122.67 193.99 -122.34 194.98 -122 196 C-118.51587471 193.82032542 -115.03867727 191.62982394 -111.5625 189.4375 C-110.58861328 188.82841797 -109.61472656 188.21933594 -108.61132812 187.59179688 C-99.32685766 181.92315134 -99.32685766 181.92315134 -91 175 C-90.68945595 172.02662858 -90.68945595 172.02662858 -92.36108398 170.2824707 C-92.98313721 169.66976318 -93.60519043 169.05705566 -94.24609375 168.42578125 C-94.91833984 167.75869141 -95.59058594 167.09160156 -96.28320312 166.40429688 C-96.99412109 165.71400391 -97.70503906 165.02371094 -98.4375 164.3125 C-99.14455078 163.61060547 -99.85160156 162.90871094 -100.58007812 162.18554688 C-103.39789244 158.80816373 -103.39789244 158.80816373 -107 157 Z M-122 254 C-121.52502152 260.72328693 -120.1493788 266.03917026 -117.4375 272.1875 C-117.08107422 273.01048584 -116.72464844 273.83347168 -116.35742188 274.68139648 C-111.28818591 286.14842696 -105.2696422 296.50638799 -97 306 C-95.93458984 307.24716797 -95.93458984 307.24716797 -94.84765625 308.51953125 C-80.82033814 324.56836093 -63.40623934 336.95484679 -43.4375 344.5 C-42.47432861 344.86460327 -42.47432861 344.86460327 -41.49169922 345.23657227 C-37.31333856 346.73242756 -33.38178103 347.50373651 -29 348 C-30.43546497 342.98359015 -32.60186425 338.98440394 -35.375 334.625 C-36.03266357 333.58605591 -36.03266357 333.58605591 -36.70361328 332.52612305 C-44.97900502 319.6508692 -54.34175884 307.9641279 -65 297 C-65.58152832 296.39269043 -66.16305664 295.78538086 -66.76220703 295.15966797 C-82.83645824 278.40122411 -100.84646703 265.50109147 -121 254 C-121.33 254 -121.66 254 -122 254 Z M124 254 C113.06753279 259.89071133 103.03942936 266.7074363 93 274 C94.3584202 277.04332765 95.88463024 279.12309151 98.2578125 281.453125 C98.88300781 282.071875 99.50820313 282.690625 100.15234375 283.328125 C100.80332031 283.96234375 101.45429688 284.5965625 102.125 285.25 C102.78371094 285.8996875 103.44242187 286.549375 104.12109375 287.21875 C105.74296643 288.81711727 107.3693281 290.41061897 109 292 C112.54930645 287.95157233 114.77203239 283.78126061 117 278.9375 C117.34667725 278.18960205 117.69335449 277.4417041 118.05053711 276.67114258 C123.83383214 265.67747251 123.83383214 265.67747251 124 254 Z M50.7578125 317.15234375 C46.37612396 321.94285012 42.78317461 327.13500474 39.25 332.5625 C38.77836426 333.28236084 38.30672852 334.00222168 37.82080078 334.74389648 C35.07040271 339.03740436 32.87041011 343.25539302 31 348 C36.11468534 347.42657523 40.68197332 346.27735085 45.5 344.4375 C46.18126953 344.18081543 46.86253906 343.92413086 47.56445312 343.65966797 C55.04550743 340.7432956 62.02304904 336.9495958 69 333 C64.02838782 326.98173262 58.70170757 321.33662648 53 316 C51.83979019 315.88665045 51.83979019 315.88665045 50.7578125 317.15234375 Z " fill="#DC2E43" transform="translate(234,11)"/>
<path d="M0 0 C3.3427601 1.33272159 5.53028067 3.7551388 8.01930714 6.2691927 C8.59104418 6.83483864 9.16278122 7.40048458 9.75184363 7.9832713 C11.66988225 9.88463201 13.57700077 11.79658119 15.48431873 13.7086916 C16.85536487 15.07240038 18.22703341 16.43548366 19.59927845 17.79798603 C23.32719618 21.50364821 27.04537539 25.21893819 30.76123357 28.93668866 C33.86036725 32.03594182 36.96382604 35.13084623 40.06718749 38.22586507 C47.38468969 45.52411997 54.69397226 52.83053738 61.99847889 60.14179707 C69.54472511 67.69469092 77.10562201 75.23269024 84.6736992 82.76370364 C91.16335498 89.2227227 97.64336656 95.69130726 104.11577147 102.16761273 C107.98497975 106.03889411 111.85791568 109.90625798 115.74034023 113.7642889 C119.38838485 117.39016767 123.02430126 121.0277761 126.65106297 124.67493916 C127.98714531 126.01444917 129.32754538 127.34966776 130.67243862 128.68033123 C132.50162696 130.49148821 134.31487721 132.31720771 136.12477589 134.14761066 C136.66580206 134.67611899 137.20682824 135.20462732 137.76424915 135.74915105 C139.21798897 137.23866463 139.21798897 137.23866463 141.25458241 139.89887714 C141.1330882 143.8394846 138.57696077 146.32153091 136.19208241 149.33637714 C132.07523781 154.6449617 128.52814188 160.12046946 125.07880116 165.89106464 C119.77275575 174.63979047 119.77275575 174.63979047 116.62958241 176.21137714 C107.6250374 178.04563631 98.53862049 178.08144763 89.37958241 178.08637714 C88.18977772 178.09862324 86.99997303 178.11086933 85.77411366 178.12348652 C65.87924154 178.15610106 65.87924154 178.15610106 61.00140858 173.961133 C59.1534327 171.77946253 57.96003033 169.70862154 56.69208241 167.14887714 C50.34285199 155.15588637 42.11621794 144.14112981 33.25458241 133.89887714 C32.58426991 133.11770527 31.91395741 132.33653339 31.22333241 131.53168964 C15.8172855 113.9986885 -0.93301612 99.41630935 -20.94463634 87.35981464 C-21.66731701 86.9203249 -22.38999767 86.48083515 -23.13457775 86.02802753 C-24.55090199 85.16999152 -25.97353608 84.32225946 -27.40313244 83.48652363 C-32.16206759 80.60605347 -34.72531667 78.06828161 -36.47588634 72.62934589 C-39.21901539 57.36629457 -40.27964167 37.63162382 -34.74541759 22.89887714 C-30.7284432 18.83564201 -25.34706608 16.07777873 -20.49541759 13.08637714 C-14.48657101 9.36026545 -8.72114181 5.6433149 -3.43682384 0.91059589 C-1.74541759 -0.10112286 -1.74541759 -0.10112286 0 0 Z " fill="#7B9AFE" transform="translate(144.74541759490967,185.10112285614014)"/>
<path d="M0 0 C1.73408609 0.06418013 3.46983616 0.09833131 5.20507812 0.08789062 C10.28176064 0.06787742 14.233776 0.57135911 18.77050781 3.10253906 C23.31922933 8.2304331 26.2594049 14.48303832 29.37792969 20.53466797 C31.40188338 24.26677613 33.78360613 27.65211337 36.33300781 31.04003906 C36.78836914 31.64581787 37.24373047 32.25159668 37.71289062 32.87573242 C39.05052003 34.63023885 40.40554504 36.36923707 41.77050781 38.10253906 C42.18558594 38.63331055 42.60066406 39.16408203 43.02832031 39.7109375 C55.05417679 54.9228896 69.08803495 68.70657858 84.77050781 80.10253906 C85.34752441 80.52970215 85.92454102 80.95686523 86.51904297 81.39697266 C93.79532968 86.78347109 101.21693769 91.73573363 109.02832031 96.31347656 C112.70352039 98.71125667 115.29885708 100.52652855 116.58984375 104.84033203 C117.67218573 113.00119056 118.07459194 120.99773691 118.02050781 129.22753906 C118.02824219 130.4121875 118.03597656 131.59683594 118.04394531 132.81738281 C117.99933376 153.04872057 117.99933376 153.04872057 112.77050781 159.10253906 C110.01269531 160.91894531 110.01269531 160.91894531 106.64550781 162.66503906 C97.83244154 167.39688673 89.85132964 173.2326927 81.77050781 179.10253906 C77.74424217 177.49073208 75.04397477 174.64971359 72.05047607 171.62301636 C71.48352815 171.05777728 70.91658022 170.49253821 70.33245206 169.91017067 C68.43299453 168.01400868 66.54077587 166.11078441 64.6484375 164.20751953 C63.28868844 162.84720638 61.92849892 161.48733338 60.56790161 160.12786865 C56.87368161 156.43422321 53.18566684 152.73443729 49.49871731 149.03353643 C45.64523352 145.16756259 41.7860972 141.30723983 37.92755127 137.44631958 C30.62089828 130.13344675 23.31935912 122.81548994 16.01963353 115.49570286 C7.7092515 107.16297753 -0.60680029 98.83592055 -8.92333841 90.50934005 C-26.03171578 73.38004927 -43.1329437 56.24363555 -60.22949219 39.10253906 C-58.6561962 34.96120959 -56.70896772 31.76320822 -54.10449219 28.16503906 C-46.12492871 17.0903809 -46.12492871 17.0903809 -40.48339844 4.80957031 C-38.72051235 2.40962882 -36.7077214 2.19396871 -33.87353516 1.68310547 C-33.12475098 1.57401855 -32.3759668 1.46493164 -31.60449219 1.35253906 C-30.4252417 1.17150635 -30.4252417 1.17150635 -29.22216797 0.98681641 C-19.50542535 -0.34220991 -9.78465309 -0.41052228 0 0 Z " fill="#B5CAFD" transform="translate(245.2294921875,106.8974609375)"/>
<path d="M0 0 C5.28 0 10.56 0 16 0 C15.36577767 6.22991313 14.5021028 12.39543509 13.54003906 18.58276367 C11.81050275 29.7270137 10.34545492 40.72089676 10 52 C9.01 52 8.02 52 7 52 C6.93006836 51.17089111 6.86013672 50.34178223 6.78808594 49.48754883 C5.35085758 32.78034681 3.60339752 16.40734811 0 0 Z " fill="#587DFB" transform="translate(227,413)"/>
<path d="M0 0 C0 4.29 0 8.58 0 13 C-3.80668717 13.95167179 -5.21790241 13.98617819 -8.90234375 13.29296875 C-9.86575684 13.11942871 -10.82916992 12.94588867 -11.82177734 12.76708984 C-12.84996582 12.5758252 -13.8781543 12.38456055 -14.9375 12.1875 C-24.13443256 10.54504033 -33.25396961 9.34275439 -42.57397461 8.68432617 C-48.79772176 8.20227824 -48.79772176 8.20227824 -51 6 C-48.3360001 4.66800005 -45.99382253 4.62459658 -43.0234375 4.3515625 C-41.80197021 4.23458008 -40.58050293 4.11759766 -39.32202148 3.99707031 C-37.36824585 3.81289551 -37.36824585 3.81289551 -35.375 3.625 C-25.74719906 2.69667078 -16.31341313 1.5629094 -6.87109375 -0.546875 C-4 -1 -4 -1 0 0 Z " fill="#587DFA" transform="translate(58,229)"/>
<path d="M0 0 C0.99 0.33 1.98 0.66 3 1 C3.11275269 2.08547119 3.11275269 2.08547119 3.2277832 3.19287109 C5.19158444 22.10704549 5.19158444 22.10704549 8.1730957 40.88037109 C8.4855781 42.5805529 8.74886441 44.28968005 9 46 C8 47 8 47 4.83984375 47.09765625 C3.55207031 47.08605469 2.26429688 47.07445312 0.9375 47.0625 C-0.35285156 47.05347656 -1.64320313 47.04445312 -2.97265625 47.03515625 C-3.97167969 47.02355469 -4.97070312 47.01195312 -6 47 C-5.48969771 40.67225163 -4.59731458 34.49620158 -3.5 28.25 C-2.31420899 21.45878018 -1.55672386 14.80899685 -1.2109375 7.91796875 C-1.01430076 5.19782725 -0.59922976 2.65724015 0 0 Z " fill="#C1D5F7" transform="translate(234,11)"/>
<path d="M0 0 C5.09634427 0.58739423 10.03783603 1.38226589 15.0625 2.4375 C25.59637071 4.54453283 36.30182804 5.21676107 47 6 C47 6.99 47 7.98 47 9 C45.16115234 9.14695313 45.16115234 9.14695313 43.28515625 9.296875 C31.72601964 10.28133192 20.34624969 11.7819299 8.91430664 13.76660156 C7.8958667 13.94030273 6.87742676 14.11400391 5.828125 14.29296875 C4.9196582 14.4530542 4.01119141 14.61313965 3.07519531 14.77807617 C2.39038086 14.85131104 1.70556641 14.9245459 1 15 C0 14 0 14 -0.09765625 10.83984375 C-0.08025391 8.90818359 -0.08025391 8.90818359 -0.0625 6.9375 C-0.05347656 5.64714844 -0.04445313 4.35679687 -0.03515625 3.02734375 C-0.02355469 2.02832031 -0.01195312 1.02929688 0 0 Z " fill="#C0D8FB" transform="translate(413,228)"/>
<path d="M0 0 C1.1055189 0.93590504 2.20935453 1.87379858 3.3125 2.8125 C4.23482422 3.59560547 4.23482422 3.59560547 5.17578125 4.39453125 C5.77777344 4.92433594 6.37976563 5.45414062 7 6 C7.59167969 6.47824219 8.18335938 6.95648438 8.79296875 7.44921875 C10 9 10 9 9.94140625 10.84765625 C8.67147774 13.75110275 6.90361692 15.95203144 4.9375 18.4375 C0.82065541 23.74608456 -2.72644052 29.22159232 -6.17578125 34.9921875 C-11.47652829 43.73217726 -11.47652829 43.73217726 -14.6875 45.375 C-18.8390718 46.15831543 -22.79031607 46.16838736 -27 46 C-27 45.67 -27 45.34 -27 45 C-25.865625 44.855625 -24.73125 44.71125 -23.5625 44.5625 C-20.19222799 44.38828522 -20.19222799 44.38828522 -19 43 C-17.00041636 42.95919217 -14.99954746 42.95745644 -13 43 C-13 42.01 -13 41.02 -13 40 C-12.01 39.505 -12.01 39.505 -11 39 C-9.86897474 36.65961814 -9.86897474 36.65961814 -8.875 33.9375 C-8.52179688 33.01839844 -8.16859375 32.09929687 -7.8046875 31.15234375 C-7.53914063 30.44207031 -7.27359375 29.73179687 -7 29 C-6.34 29 -5.68 29 -5 29 C-4.32741333 26.66836622 -3.66152556 24.3347961 -3 22 C-2.773125 21.29875 -2.54625 20.5975 -2.3125 19.875 C-1.90050407 17.40302439 -2.39733704 15.41065183 -3 13 C-1.88625 13.020625 -0.7725 13.04125 0.375 13.0625 C3.83215921 13.26380718 3.83215921 13.26380718 6 12 C5.360625 11.443125 4.72125 10.88625 4.0625 10.3125 C1.76311032 7.73439642 1.43071292 6.35956075 1 3 C0.67 2.01 0.34 1.02 0 0 Z " fill="#8BA5FC" transform="translate(276,316)"/>
<path d="M0 0 C0 4.29 0 8.58 0 13 C-3.96444709 13.99111177 -5.725914 13.90981297 -9.640625 13.22265625 C-11.24550781 12.94711914 -11.24550781 12.94711914 -12.8828125 12.66601562 C-13.99398437 12.46685547 -15.10515625 12.26769531 -16.25 12.0625 C-17.37664063 11.86720703 -18.50328125 11.67191406 -19.6640625 11.47070312 C-22.44406454 10.98773667 -25.22252265 10.49724577 -28 10 C-28 9.67 -28 9.34 -28 9 C-19.02878614 8.62792201 -9.56145 9.14618333 -1 12 C-1.495 7.545 -1.495 7.545 -2 3 C-6.27775849 2.84444515 -10.02906121 2.8978903 -14.1875 3.9375 C-20.04502908 5.38646772 -25.99368445 5.6472334 -32 6 C-31.01 6.99 -30.02 7.98 -29 9 C-42.79816514 9.26422018 -42.79816514 9.26422018 -49 8 C-49.66 7.34 -50.32 6.68 -51 6 C-48.3360001 4.66800005 -45.99382253 4.62459658 -43.0234375 4.3515625 C-41.80197021 4.23458008 -40.58050293 4.11759766 -39.32202148 3.99707031 C-37.36824585 3.81289551 -37.36824585 3.81289551 -35.375 3.625 C-25.74719906 2.69667078 -16.31341313 1.5629094 -6.87109375 -0.546875 C-4 -1 -4 -1 0 0 Z " fill="#7677D4" transform="translate(58,229)"/>
<path d="M0 0 C0 0.99 0 1.98 0 3 C-0.495 2.505 -0.495 2.505 -1 2 C-2.97509873 1.7905639 -4.95571682 1.63196178 -6.9375 1.5 C-12.77991747 1.11004127 -12.77991747 1.11004127 -15 0 C-17.16622525 -0.09755284 -19.33548649 -0.13077109 -21.50390625 -0.1328125 C-22.80134766 -0.13410156 -24.09878906 -0.13539062 -25.43554688 -0.13671875 C-26.11222412 -0.13462402 -26.78890137 -0.1325293 -27.48608398 -0.13037109 C-29.55785415 -0.12501202 -31.62940839 -0.13032518 -33.70117188 -0.13671875 C-34.99732422 -0.13542969 -36.29347656 -0.13414063 -37.62890625 -0.1328125 C-39.4243689 -0.13112061 -39.4243689 -0.13112061 -41.25610352 -0.12939453 C-43.91170996 -0.31262793 -43.91170996 -0.31262793 -45 1 C-46.85287502 1.07226502 -48.70833878 1.0838122 -50.5625 1.0625 C-51.57441406 1.05347656 -52.58632812 1.04445313 -53.62890625 1.03515625 C-54.41136719 1.02355469 -55.19382813 1.01195313 -56 1 C-56 1.66 -56 2.32 -56 3 C-56.99 3 -57.98 3 -59 3 C-58.67 2.01 -58.34 1.02 -58 0 C-38.68283277 -4.09758093 -19.25963639 -4.75826311 0 0 Z " fill="#D3B2DB" transform="translate(264,110)"/>
<path d="M0 0 C0.99 0.33 1.98 0.66 3 1 C3.33808357 4.37454164 3.66961318 7.74969681 4 11.125 C4.09539062 12.07632812 4.19078125 13.02765625 4.2890625 14.0078125 C4.74437277 18.69100382 5.12693246 23.2876326 5 28 C4.34 28 3.68 28 3 28 C2.67 25.69 2.34 23.38 2 21 C1.34 21.33 0.68 21.66 0 22 C-0.165 23.155 -0.33 24.31 -0.5 25.5 C-0.665 26.655 -0.83 27.81 -1 29 C-1.66 29.33 -2.32 29.66 -3 30 C-2.69242923 25.93711107 -2.37808161 21.87477392 -2.0625 17.8125 C-1.97548828 16.66201172 -1.88847656 15.51152344 -1.79882812 14.32617188 C-1.71181641 13.21435547 -1.62480469 12.10253906 -1.53515625 10.95703125 C-1.456604 9.93585205 -1.37805176 8.91467285 -1.29711914 7.86254883 C-1.01957735 5.18861501 -0.5754276 2.62420277 0 0 Z " fill="#CDDDF5" transform="translate(234,11)"/>
<path d="M0 0 C0.33 0 0.66 0 1 0 C1.125 7.625 1.125 7.625 0 11 C-0.20631975 15.52065645 -0.18579969 20.04380544 -0.18530273 24.56860352 C-0.18748186 26.79397923 -0.20562775 29.01885307 -0.22460938 31.24414062 C-0.2275451 32.66926915 -0.2295287 34.09440001 -0.23046875 35.51953125 C-0.23457764 36.80964111 -0.23868652 38.09975098 -0.24291992 39.42895508 C-0.00182245 42.97320902 0.7513323 45.69342667 2 49 C2.47274847 51.66701495 2.72087956 54.30183576 3 57 C-0.95462352 54.36358432 -0.96714033 52.57409282 -2 48 C-4.4359961 32.07776461 -3.86003336 15.62394457 0 0 Z " fill="#977ACD" transform="translate(110,208)"/>
<path d="M0 0 C17.5212582 -1.33072847 37.85734841 3.27159565 54 10 C54.66 10.66 55.32 11.32 56 12 C55.43152344 11.86722656 54.86304688 11.73445313 54.27734375 11.59765625 C49.52848903 10.5115242 44.83219676 9.61687618 40 9 C40 8.34 40 7.68 40 7 C38.7315625 7.061875 38.7315625 7.061875 37.4375 7.125 C34 7 34 7 30.375 5.9375 C27.21773338 5.06048149 25.9611454 4.81554184 23 6 C23 5.34 23 4.68 23 4 C22.24074219 4 21.48148437 4 20.69921875 4 C16.1328125 4 11.56640625 4 7 4 C7 3.01 7 2.02 7 1 C4.69 1 2.38 1 0 1 C0 0.67 0 0.34 0 0 Z " fill="#C3394A" transform="translate(244,58)"/>
<path d="M0 0 C1.67170557 4.09462061 0.25608365 7.75632916 -0.875 11.8125 C-3.38685717 21.03707892 -4.21689339 29.89082555 -4.5625 39.4375 C-4.60568359 40.55060547 -4.64886719 41.66371094 -4.69335938 42.81054688 C-4.79879888 45.54025844 -4.90092029 48.27005143 -5 51 C-7.57863012 48.42136988 -7.25712302 47.38284601 -7.265625 43.80078125 C-7.26820312 42.75599609 -7.27078125 41.71121094 -7.2734375 40.63476562 C-7.26183594 38.99024414 -7.26183594 38.99024414 -7.25 37.3125 C-7.25773437 36.23548828 -7.26546875 35.15847656 -7.2734375 34.04882812 C-7.25921302 28.24879808 -6.80144303 23.49474903 -5 18 C-4.70476633 15.17846303 -4.56564186 12.38415465 -4.44140625 9.55078125 C-3.93001295 6.59556156 -2.88243102 5.28684076 -1 3 C-0.67 2.01 -0.34 1.02 0 0 Z " fill="#C5355A" transform="translate(112,197)"/>
<path d="M0 0 C0.625 1.875 0.625 1.875 1 4 C0.34 4.66 -0.32 5.32 -1 6 C-1.70710678 7.64991582 -2.37943989 9.31562256 -3 11 C-3.66 11 -4.32 11 -5 11 C-5.1546875 12.0209375 -5.1546875 12.0209375 -5.3125 13.0625 C-6.66445154 18.8390202 -8.92000728 23.66500773 -13 28 C-13.99 28.33 -14.98 28.66 -16 29 C-16 31.31 -16 33.62 -16 36 C-17.32 35.01 -18.64 34.02 -20 33 C-18.55109247 28.8580968 -16.49911599 25.67602322 -13.9375 22.125 C-8.87010938 14.99594354 -4.41446675 7.54529423 0 0 Z " fill="#C6D0F3" transform="translate(205,113)"/>
<path d="M0 0 C3.95358574 3.894577 7.73541639 7.92337307 11.5 12 C18.15943365 19.17945104 25.02443264 26.12871853 32 33 C31.67 33.66 31.34 34.32 31 35 C25.2199218 30.92379973 20.75118151 26.76946063 16.5546875 21.07421875 C13.89846021 17.53035772 10.88767792 14.67632604 7.375 12 C4.83925447 9.86463534 3.47605259 7.95210519 2 5 C2 4.34 2 3.68 2 3 C1.34 3 0.68 3 0 3 C0 2.01 0 1.02 0 0 Z " fill="#C9D8F7" transform="translate(284,143)"/>
<path d="M0 0 C7.40239645 -0.12886183 14.63959083 0.20274098 22 1 C22 1.99 22 2.98 22 4 C18.62545836 4.33808357 15.25030319 4.66961318 11.875 5 C10.92367188 5.09539062 9.97234375 5.19078125 8.9921875 5.2890625 C4.30899618 5.74437277 -0.2876326 6.12693246 -5 6 C-5 5.67 -5 5.34 -5 5 C-3.5459375 4.5359375 -3.5459375 4.5359375 -2.0625 4.0625 C0.84065792 3.30476658 0.84065792 3.30476658 2 2 C1.34 1.34 0.68 0.68 0 0 Z " fill="#C7DBF4" transform="translate(438,233)"/>
<path d="M0 0 C-3.52155964 2.34770643 -5.50771843 2.37669614 -9.6875 2.625 C-10.86699219 2.69976562 -12.04648437 2.77453125 -13.26171875 2.8515625 C-14.16535156 2.90054688 -15.06898437 2.94953125 -16 3 C-15.01 3.99 -14.02 4.98 -13 6 C-26.79816514 6.26422018 -26.79816514 6.26422018 -33 5 C-33.66 4.34 -34.32 3.68 -35 3 C-30.73227488 0.86613744 -25.37856502 1.07120094 -20.67871094 0.58789062 C-18.63903904 0.37645531 -16.60085344 0.15343326 -14.5625 -0.0703125 C-13.27601562 -0.204375 -11.98953125 -0.3384375 -10.6640625 -0.4765625 C-8.89216553 -0.663396 -8.89216553 -0.663396 -7.08447266 -0.85400391 C-4.38869896 -0.98160187 -2.53047502 -0.85129456 0 0 Z " fill="#7896EB" transform="translate(42,232)"/>
<path d="M0 0 C0.33 0 0.66 0 1 0 C1.84620686 5.13096861 2.15408148 10.05410834 2.125 15.25 C2.12886719 15.95640625 2.13273437 16.6628125 2.13671875 17.390625 C2.13077317 20.52989304 1.99991484 23.00025549 1 26 C0.92970879 28.57265818 0.90629168 31.11641431 0.9375 33.6875 C0.94201172 34.38939453 0.94652344 35.09128906 0.95117188 35.81445312 C0.96293073 37.54300538 0.98086546 39.27151365 1 41 C-0.66666667 41 -2.33333333 41 -4 41 C-3.46171968 36.96289761 -2.79993746 32.9937176 -2 29 C-0.89025371 22.93880611 -0.56434804 16.96236658 -0.375 10.8125 C-0.33632813 9.76513672 -0.29765625 8.71777344 -0.2578125 7.63867188 C-0.16480563 5.09260887 -0.07896716 2.54653037 0 0 Z " fill="#C05472" transform="translate(363,227)"/>
<path d="M0 0 C0.66 0 1.32 0 2 0 C3.0280835 5.34004535 4.01584911 10.64889276 4.5625 16.0625 C4.74586541 19.77981861 4.74586541 19.77981861 6 22 C6.66 22.33 7.32 22.66 8 23 C7.67 28.28 7.34 33.56 7 39 C6.01 39 5.02 39 4 39 C3.91435791 38.1028125 3.82871582 37.205625 3.74047852 36.28125 C3.4189738 32.91901835 3.0964254 29.55689008 2.77319336 26.19482422 C2.63410984 24.74597045 2.49542971 23.29707789 2.35717773 21.84814453 C1.31754714 10.90875124 1.31754714 10.90875124 0 0 Z " fill="#7C93E8" transform="translate(230,426)"/>
<path d="M0 0 C5.28 0 10.56 0 16 0 C15.37679879 6.43974581 14.35991738 12.67572401 13 19 C12.67 19 12.34 19 12 19 C12.33 13.39 12.66 7.78 13 2 C10.03 2 7.06 2 4 2 C4.33 5.63 4.66 9.26 5 13 C4.34 13 3.68 13 3 13 C2.01 8.71 1.02 4.42 0 0 Z " fill="#7779DB" transform="translate(227,413)"/>
<path d="M0 0 C2.7165227 3.1407468 3.48956224 5.56331709 4.1875 9.625 C5.94360627 17.98786284 9.53029045 25.42147091 13.19970703 33.09985352 C14.01923748 35.04567582 14.54210687 36.94176752 15 39 C14.01 38.67 13.02 38.34 12 38 C12 36.68 12 35.36 12 34 C11.01 33.67 10.02 33.34 9 33 C8.87625 32.195625 8.7525 31.39125 8.625 30.5625 C8.41875 29.716875 8.2125 28.87125 8 28 C7.34 27.67 6.68 27.34 6 27 C6 24.69 6 22.38 6 20 C5.34 20 4.68 20 4 20 C3.69255859 18.82630859 3.69255859 18.82630859 3.37890625 17.62890625 C3.10949219 16.61699219 2.84007813 15.60507812 2.5625 14.5625 C2.16224609 13.04849609 2.16224609 13.04849609 1.75390625 11.50390625 C1.24021923 9.08247999 1.24021923 9.08247999 0 8 C-0.14115161 5.32941149 -0.04247107 2.67567762 0 0 Z " fill="#C4384C" transform="translate(109,260)"/>
<path d="M0 0 C5.06623768 4.23816537 9.80038069 8.67408963 14.4375 13.375 C15.07365234 14.01566406 15.70980469 14.65632812 16.36523438 15.31640625 C17.91250332 16.87530879 19.45736492 18.43651416 21 20 C20.34 20.33 19.68 20.66 19 21 C18.01 20.67 17.02 20.34 16 20 C16 19.01 16 18.02 16 17 C14.68 17.33 13.36 17.66 12 18 C11.71125 17.195625 11.4225 16.39125 11.125 15.5625 C10.26737432 12.8673532 10.26737432 12.8673532 8 12 C7.67 11.01 7.34 10.02 7 9 C4.69 8.67 2.38 8.34 0 8 C0 5.36 0 2.72 0 0 Z " fill="#A79EE4" transform="translate(160,200)"/>
<path d="M0 0 C0.66 0 1.32 0 2 0 C0.20723604 4.90791321 -2.42223198 8.97986316 -5.26953125 13.3359375 C-6.26001583 14.86079186 -7.23022814 16.40032797 -8.13671875 17.9765625 C-9.70861602 20.66934854 -10.8879164 21.9426549 -13.6875 23.375 C-17.8390718 24.15831543 -21.79031607 24.16838736 -26 24 C-26 23.67 -26 23.34 -26 23 C-24.865625 22.855625 -23.73125 22.71125 -22.5625 22.5625 C-19.19222799 22.38828522 -19.19222799 22.38828522 -18 21 C-16.00041636 20.95919217 -13.99954746 20.95745644 -12 21 C-12 20.01 -12 19.02 -12 18 C-11.34 17.67 -10.68 17.34 -10 17 C-8.86897474 14.65961814 -8.86897474 14.65961814 -7.875 11.9375 C-7.34519531 10.55884766 -7.34519531 10.55884766 -6.8046875 9.15234375 C-6.53914063 8.44207031 -6.27359375 7.73179687 -6 7 C-5.34 7 -4.68 7 -4 7 C-3.34 5.35 -2.68 3.7 -2 2 C-1.34 2 -0.68 2 0 2 C0 1.34 0 0.68 0 0 Z " fill="#96A7EE" transform="translate(275,338)"/>
<path d="M0 0 C0.66 0.33 1.32 0.66 2 1 C2.91171637 14.59106047 3.18776297 27.52988915 1 41 C0.67 41 0.34 41 0 41 C-0.20049066 39.52253806 -0.38449872 38.04283977 -0.5625 36.5625 C-0.71912109 35.32693359 -0.71912109 35.32693359 -0.87890625 34.06640625 C-0.97935096 31.5228869 -0.84807554 29.38008644 -0.53125 26.875 C0.14583586 21.39020392 0.10998443 15.95665217 0.0625 10.4375 C0.05798828 9.42880859 0.05347656 8.42011719 0.04882812 7.38085938 C0.03716769 4.92050853 0.02080378 2.46028761 0 0 Z " fill="#BF4C63" transform="translate(411,220)"/>
<path d="M0 0 C6.78376359 5.55035203 12.85522968 11.76442027 19 18 C15.58900832 18 12.36911686 17.50854594 9 17 C9 14.69 9 12.38 9 10 C8.01 10 7.02 10 6 10 C6 9.01 6 8.02 6 7 C4.02 6.34 2.04 5.68 0 5 C0 3.35 0 1.7 0 0 Z " fill="#A0A1EC" transform="translate(231,271)"/>
<path d="M0 0 C0.33 0 0.66 0 1 0 C1.07455741 3.87698525 1.04859979 7.27164518 0 11 C-0.1546875 12.7634375 -0.1546875 12.7634375 -0.3125 14.5625 C-1 18 -1 18 -2.9375 19.9375 C-5 21 -5 21 -7 21 C-4.66666667 14 -2.33333333 7 0 0 Z " fill="#C7344A" transform="translate(358,269)"/>
<path d="M0 0 C4.36548643 1.54610978 8.13075826 3.81154781 12 6.3125 C12.60328125 6.69083984 13.2065625 7.06917969 13.828125 7.45898438 C17.71058516 9.95304302 20.84843688 12.6275887 24 16 C23.01 16 22.02 16 21 16 C21 15.34 21 14.68 21 14 C20.00419922 13.76216797 20.00419922 13.76216797 18.98828125 13.51953125 C13.23896658 12.00036927 10.00441548 10.57647484 6 6 C5.0925 5.46375 4.185 4.9275 3.25 4.375 C1 3 1 3 0 0 Z " fill="#C6D5F3" transform="translate(335,192)"/>
<path d="M0 0 C-1.11375 0.474375 -2.2275 0.94875 -3.375 1.4375 C-5.26710994 2.25306463 -7.15712709 3.07856355 -9 4 C-9 4.66 -9 5.32 -9 6 C-8.34 6.33 -7.68 6.66 -7 7 C-9.31 7.33 -11.62 7.66 -14 8 C-14.33 7.34 -14.66 6.68 -15 6 C-19.455 6.495 -19.455 6.495 -24 7 C-20.84160433 3.84160433 -16.76336074 3.12623496 -12.5625 1.8125 C-11.69044922 1.52697266 -10.81839844 1.24144531 -9.91992188 0.94726562 C-9.08138672 0.68236328 -8.24285156 0.41746094 -7.37890625 0.14453125 C-6.6113501 -0.09934326 -5.84379395 -0.34321777 -5.05297852 -0.59448242 C-3 -1 -3 -1 0 0 Z " fill="#CE3446" transform="translate(192,64)"/>
<path d="M0 0 C5.24647899 1.68954408 10.37677057 3.52765682 15.5 5.5625 C19.40234896 7.09229408 23.14023283 8.36292888 27.25 9.1875 C28.4875 9.455625 29.725 9.72375 31 10 C31.33 10.66 31.66 11.32 32 12 C29.60293301 11.71657321 27.20768917 11.42356312 24.8125 11.125 C23.80219727 11.00705078 23.80219727 11.00705078 22.77148438 10.88671875 C18.89672516 10.39528587 15.54915277 9.64019099 12 8 C12 7.34 12 6.68 12 6 C11.42765625 5.87753906 10.8553125 5.75507813 10.265625 5.62890625 C7.90046809 4.97237132 5.92793203 4.06276488 3.75 2.9375 C3.04359375 2.57527344 2.3371875 2.21304687 1.609375 1.83984375 C1.07828125 1.56269531 0.5471875 1.28554688 0 1 C0 0.67 0 0.34 0 0 Z " fill="#BD3F55" transform="translate(176,349)"/>
<path d="M0 0 C2.33294775 -0.04241723 4.66702567 -0.04092937 7 0 C7.33 0.33 7.66 0.66 8 1 C15.16817263 2.00072731 22.3350792 2.29675397 29.5625 2.5625 C30.66658203 2.60568359 31.77066406 2.64886719 32.90820312 2.69335938 C35.60537185 2.79844387 38.30261703 2.90059413 41 3 C41 3.33 41 3.66 41 4 C36.58339099 4.0589002 32.16688531 4.09389517 27.75 4.125 C26.51507813 4.14175781 25.28015625 4.15851563 24.0078125 4.17578125 C16.28425126 4.21643157 8.48422262 4.13384903 1 2 C0.67 1.34 0.34 0.68 0 0 Z " fill="#977FD6" transform="translate(207,359)"/>
<path d="M0 0 C6.41069287 5.27101414 12.18590512 11.09128152 18 17 C17.01 17.33 16.02 17.66 15 18 C15 17.34 15 16.68 15 16 C13.68 15.67 12.36 15.34 11 15 C11 14.01 11 13.02 11 12 C9.68 12.33 8.36 12.66 7 13 C6.896875 12.38125 6.79375 11.7625 6.6875 11.125 C6.12474627 8.63473516 6.12474627 8.63473516 3 7 C0 2.55555556 0 2.55555556 0 0 Z " fill="#A79EE4" transform="translate(213,253)"/>
<path d="M0 0 C0.33 0.99 0.66 1.98 1 3 C-3.625 6 -3.625 6 -7 6 C-7.33 6.99 -7.66 7.98 -8 9 C-8.66 9 -9.32 9 -10 9 C-10.33 9.66 -10.66 10.32 -11 11 C-12.84765625 11.6328125 -12.84765625 11.6328125 -15.0625 12.125 C-15.79597656 12.29257813 -16.52945313 12.46015625 -17.28515625 12.6328125 C-17.85105469 12.75398437 -18.41695313 12.87515625 -19 13 C-19 13.66 -19 14.32 -19 15 C-19.99 14.67 -20.98 14.34 -22 14 C-14.80825748 9.0940051 -7.43374224 4.52688477 0 0 Z " fill="#97A6EC" transform="translate(133,193)"/>
<path d="M0 0 C1.39456452 0.00667256 2.78911118 0.01863093 4.18359375 0.03515625 C4.89451172 0.03966797 5.60542969 0.04417969 6.33789062 0.04882812 C8.09899388 0.06064761 9.86005411 0.07858362 11.62109375 0.09765625 C11.62109375 0.42765625 11.62109375 0.75765625 11.62109375 1.09765625 C9.82865234 1.37029297 9.82865234 1.37029297 8 1.6484375 C-2.0565836 3.11466917 -2.0565836 3.11466917 -11.81640625 5.84765625 C-15.37890625 7.09765625 -15.37890625 7.09765625 -18.37890625 6.09765625 C-15.37890625 4.09765625 -15.37890625 4.09765625 -11.37890625 4.09765625 C-11.37890625 3.43765625 -11.37890625 2.77765625 -11.37890625 2.09765625 C-9.67734375 1.88109375 -9.67734375 1.88109375 -7.94140625 1.66015625 C-4.10245101 1.05400542 -3.82424928 0.11052744 0 0 Z " fill="#C33D56" transform="translate(212.37890625,106.90234375)"/>
<path d="M0 0 C2.71553069 1.48916199 4.15053751 3.57351654 5.9375 6.0625 C4.98875 6.02125 4.04 5.98 3.0625 5.9375 C-1.76977658 5.91765492 -6.36877004 7.00475804 -11.0625 8.0625 C-3.38691472 0.10263378 -3.38691472 0.10263378 0 0 Z " fill="#A4A6E0" transform="translate(145.0625,184.9375)"/>
<path d="M0 0 C0.33 0 0.66 0 1 0 C0.67 4.95 0.34 9.9 0 15 C-0.66 15 -1.32 15 -2 15 C-2 17.64 -2 20.28 -2 23 C-2.33 23 -2.66 23 -3 23 C-3.24913692 20.25048889 -3.47491836 17.5023728 -3.6875 14.75 C-3.76033203 13.97269531 -3.83316406 13.19539063 -3.90820312 12.39453125 C-4.33161478 6.56639439 -4.33161478 6.56639439 -2.58203125 3.578125 C-2.05996094 3.05734375 -1.53789062 2.5365625 -1 2 C-0.67 1.34 -0.34 0.68 0 0 Z " fill="#6B8AE9" transform="translate(238,433)"/>
<path d="M0 0 C0.66 0.33 1.32 0.66 2 1 C-1.06117568 3.62386487 -1.73173127 4 -6 4 C-6 4.66 -6 5.32 -6 6 C-6.94875 6.391875 -7.8975 6.78375 -8.875 7.1875 C-12.99319139 8.93078347 -16.91861941 11.00716624 -20.86328125 13.109375 C-21.56839844 13.40328125 -22.27351562 13.6971875 -23 14 C-23.66 13.67 -24.32 13.34 -25 13 C-6.84766705 2.32059828 -6.84766705 2.32059828 0 0 Z " fill="#C2394D" transform="translate(166,71)"/>
<path d="M0 0 C1.4589426 0.47730838 2.91713496 0.95691042 4.375 1.4375 C5.18710938 1.70433594 5.99921875 1.97117187 6.8359375 2.24609375 C9 3 9 3 11 4 C11.309375 4.825 11.61875 5.65 11.9375 6.5 C12.288125 7.325 12.63875 8.15 13 9 C13.99 9.33 14.98 9.66 16 10 C17.38576923 11.62332967 18.72641268 13.28724465 20 15 C19.67 15.66 19.34 16.32 19 17 C18.29875 16.34773438 17.5975 15.69546875 16.875 15.0234375 C11.88490172 10.42658066 6.91201532 5.98385052 1.36328125 2.05859375 C0.91339844 1.70925781 0.46351563 1.35992187 0 1 C0 0.67 0 0.34 0 0 Z " fill="#8098E8" transform="translate(140,282)"/>
<path d="M0 0 C3.55435986 1.43556219 5.03428242 3.09439478 7.0625 6.3125 C7.57039063 7.11429687 8.07828125 7.91609375 8.6015625 8.7421875 C9.06304687 9.48726562 9.52453125 10.23234375 10 11 C10.9590625 12.4540625 10.9590625 12.4540625 11.9375 13.9375 C12.288125 14.618125 12.63875 15.29875 13 16 C12.67 16.66 12.34 17.32 12 18 C11.67 17.01 11.34 16.02 11 15 C9.35 15.33 7.7 15.66 6 16 C5.67 14.68 5.34 13.36 5 12 C5.66 12 6.32 12 7 12 C7 11.01 7 10.02 7 9 C6.34 9 5.68 9 5 9 C1.125 2.25 1.125 2.25 0 0 Z " fill="#C6D4F5" transform="translate(261,111)"/>
<path d="M0 0 C0.99 0 1.98 0 3 0 C-0.01171196 8.20431878 -5.20963478 15.50777233 -11 22 C-11 18.89448334 -10.4606285 17.64738916 -9 15 C-8.34 15 -7.68 15 -7 15 C-6.67 13.35 -6.34 11.7 -6 10 C-5.34 10 -4.68 10 -4 10 C-3.67 8.68 -3.34 7.36 -3 6 C-2.34 6 -1.68 6 -1 6 C-1 5.01 -1 4.02 -1 3 C-0.34 3 0.32 3 1 3 C0.67 2.01 0.34 1.02 0 0 Z " fill="#BF3C4B" transform="translate(386,324)"/>
<path d="M0 0 C5.66129431 4.69766975 10.85228904 9.74723372 16 15 C15.01 15.33 14.02 15.66 13 16 C12.67 15.01 12.34 14.02 12 13 C11.01 13 10.02 13 9 13 C9 12.01 9 11.02 9 10 C8.071875 9.773125 7.14375 9.54625 6.1875 9.3125 C2.45576433 7.77590296 1.59671096 6.63695275 0 3 C0 2.01 0 1.02 0 0 Z " fill="#A99DE3" transform="translate(260,300)"/>
<path d="M0 0 C5.66129431 4.69766975 10.85228904 9.74723372 16 15 C15.01 15.495 15.01 15.495 14 16 C13.01 15.67 12.02 15.34 11 15 C11 14.01 11 13.02 11 12 C9.68 12.33 8.36 12.66 7 13 C6.71125 12.195625 6.4225 11.39125 6.125 10.5625 C5.26737432 7.8673532 5.26737432 7.8673532 3 7 C0 2.5 0 2.5 0 0 Z " fill="#A79EE4" transform="translate(197,237)"/>
<path d="M0 0 C5.66129431 4.69766975 10.85228904 9.74723372 16 15 C15.01 15.495 15.01 15.495 14 16 C13.01 15.67 12.02 15.34 11 15 C11 14.01 11 13.02 11 12 C9.68 12.33 8.36 12.66 7 13 C6.71125 12.195625 6.4225 11.39125 6.125 10.5625 C5.26737432 7.8673532 5.26737432 7.8673532 3 7 C0 2.5 0 2.5 0 0 Z " fill="#A79EE4" transform="translate(181,221)"/>
<path d="M0 0 C0.66 0.33 1.32 0.66 2 1 C-3.06896552 9.68965517 -3.06896552 9.68965517 -7 11 C-7 13.31 -7 15.62 -7 18 C-8.32 17.01 -9.64 16.02 -11 15 C-9.62701605 10.99546349 -7.91649198 8.08314867 -5 5 C-2.25 3.6875 -2.25 3.6875 0 3 C0 2.01 0 1.02 0 0 Z " fill="#BCC1EE" transform="translate(196,131)"/>
<path d="M0 0 C3.661446 3.46907581 6.51835758 6.95155905 9.3125 11.1875 C10.00988281 12.23292969 10.70726562 13.27835938 11.42578125 14.35546875 C13 17 13 17 13 19 C12.34 19 11.68 19 11 19 C11 18.01 11 17.02 11 16 C9.35 15.67 7.7 15.34 6 15 C5.87625 14.443125 5.7525 13.88625 5.625 13.3125 C4.42798352 8.88353904 2.76139332 5.64001846 0 2 C0 1.34 0 0.68 0 0 Z " fill="#C33A4C" transform="translate(375,126)"/>
<path d="M0 0 C1.67170557 4.09462061 0.25608365 7.75632916 -0.875 11.8125 C-2.25325113 16.87400845 -3.3596188 21.78838708 -4 27 C-4.33 27 -4.66 27 -5 27 C-5.08123582 22.04461468 -5.01990004 17.13361254 -4.6875 12.1875 C-4.62949219 11.29417969 -4.57148437 10.40085938 -4.51171875 9.48046875 C-3.9215285 6.61962289 -2.82652889 5.23972823 -1 3 C-0.67 2.01 -0.34 1.02 0 0 Z " fill="#BD4065" transform="translate(112,197)"/>
<path d="M0 0 C2.74967731 1.29055736 5.07873302 2.71084296 7.453125 4.6015625 C8.38125 5.33632812 8.38125 5.33632812 9.328125 6.0859375 C9.96234375 6.59382812 10.5965625 7.10171875 11.25 7.625 C11.8996875 8.140625 12.549375 8.65625 13.21875 9.1875 C14.81503967 10.45514179 16.40786526 11.72714361 18 13 C17.01 13.33 16.02 13.66 15 14 C14.34 13.67 13.68 13.34 13 13 C13 12.34 13 11.68 13 11 C12.34 11 11.68 11 11 11 C11 10.34 11 9.68 11 9 C10.0925 8.731875 9.185 8.46375 8.25 8.1875 C5.22931703 7.08378891 3.29946621 6.21430079 1 4 C0.25 1.8125 0.25 1.8125 0 0 Z " fill="#C9D7F6" transform="translate(317,178)"/>
<path d="M0 0 C1 3 1 3 0.28735352 4.90112305 C-0.28607788 5.94586792 -0.28607788 5.94586792 -0.87109375 7.01171875 C-1.28037109 7.76904297 -1.68964844 8.52636719 -2.11132812 9.30664062 C-2.54896484 10.09232422 -2.98660156 10.87800781 -3.4375 11.6875 C-4.0881543 12.88342773 -4.0881543 12.88342773 -4.75195312 14.10351562 C-5.82574763 16.07410554 -6.90864182 18.03909927 -8 20 C-8.33 18.68 -8.66 17.36 -9 16 C-8.34 16 -7.68 16 -7 16 C-7 14.68 -7 13.36 -7 12 C-6.34 12 -5.68 12 -5 12 C-5 10.35 -5 8.7 -5 7 C-4.34 7 -3.68 7 -3 7 C-3 5.68 -3 4.36 -3 3 C-2.34 3 -1.68 3 -1 3 C-0.67 2.01 -0.34 1.02 0 0 Z " fill="#C0394C" transform="translate(398,304)"/>
<path d="M0 0 C0.33 0 0.66 0 1 0 C1.33 4.62 1.66 9.24 2 14 C0.33333333 14 -1.33333333 14 -3 14 C-2.40380045 9.13103697 -1.43023178 4.67209049 0 0 Z " fill="#CD415C" transform="translate(362,254)"/>
<path d="M0 0 C8.07481567 -0.33490019 16.09321442 0.2783612 24 2 C24.66 2.66 25.32 3.32 26 4 C19.97258105 4.16589226 14.42505207 3.57114133 8.5 2.5 C7.67757812 2.35691406 6.85515625 2.21382812 6.0078125 2.06640625 C4.00415373 1.71693088 2.00191702 1.35931844 0 1 C0 0.67 0 0.34 0 0 Z " fill="#728AE2" transform="translate(30,238)"/>
<path d="M0 0 C2 1 2 1 3.125 3.75 C3.91973395 6.70186896 4.17810598 8.97219837 4 12 C4.66 12 5.32 12 6 12 C6 16.62 6 21.24 6 26 C5.67 26 5.34 26 5 26 C4.87882812 25.09636719 4.75765625 24.19273437 4.6328125 23.26171875 C4.46523438 22.08222656 4.29765625 20.90273437 4.125 19.6875 C3.96257812 18.51574219 3.80015625 17.34398437 3.6328125 16.13671875 C3.17699379 12.85469105 3.17699379 12.85469105 1 10 C0.5859375 7.51953125 0.5859375 7.51953125 0.375 4.8125 C0.30023438 3.91144531 0.22546875 3.01039063 0.1484375 2.08203125 C0.09945313 1.39496094 0.05046875 0.70789063 0 0 Z " fill="#BF4F65" transform="translate(357,196)"/>
<path d="M0 0 C1.32 0 2.64 0 4 0 C5.9296875 1.94140625 5.9296875 1.94140625 7.875 4.5625 C8.56335938 5.46871094 9.25171875 6.37492188 9.9609375 7.30859375 C10.63382813 8.19675781 11.30671875 9.08492187 12 10 C13.96836896 12.36287329 15.98190768 14.67919383 18 17 C14.97328771 15.64526876 12.87863194 14.1260408 10.546875 11.77734375 C9.928125 11.15666016 9.309375 10.53597656 8.671875 9.89648438 C8.03765625 9.25001953 7.4034375 8.60355469 6.75 7.9375 C6.1003125 7.28716797 5.450625 6.63683594 4.78125 5.96679688 C0 1.14034598 0 1.14034598 0 0 Z " fill="#BE3F53" transform="translate(128,168)"/>
<path d="M0 0 C0.66 0 1.32 0 2 0 C2.22786458 2.05078125 2.45572917 4.1015625 2.68359375 6.15234375 C2.81886614 8.01140229 2.81886614 8.01140229 4 9 C4.04080783 10.99958364 4.04254356 13.00045254 4 15 C4.66 15 5.32 15 6 15 C6 17.64 6 20.28 6 23 C3.77224663 19.65836994 2.87261136 16.45287175 1.875 12.625 C1.69324219 11.965 1.51148438 11.305 1.32421875 10.625 C0.36505306 7.00469039 -0.21694345 3.74589021 0 0 Z " fill="#C1394A" transform="translate(61,269)"/>
<path d="M0 0 C2.859111 1.20962389 4.5761162 2.51482725 6.9375 4.625 C9.73874209 7.22557688 9.73874209 7.22557688 12.875 7.3125 C13.57625 7.209375 14.2775 7.10625 15 7 C15 7.99 15 8.98 15 10 C14.34 10 13.68 10 13 10 C12.67 11.32 12.34 12.64 12 14 C10.56041153 12.41856529 9.12341355 10.83477221 7.6875 9.25 C6.88699219 8.36828125 6.08648437 7.4865625 5.26171875 6.578125 C3.39083089 4.44550672 1.65915714 2.29812057 0 0 Z " fill="#C73449" transform="translate(320,139)"/>
<path d="M0 0 C0.33 0.66 0.66 1.32 1 2 C2.98 2 4.96 2 7 2 C7.33 3.65 7.66 5.3 8 7 C3.27934033 5.45730076 -1.41664092 3.92205381 -6 2 C-6 1.67 -6 1.34 -6 1 C-4.02 0.67 -2.04 0.34 0 0 Z " fill="#CB354B" transform="translate(285,114)"/>
<path d="M0 0 C0.66 0.33 1.32 0.66 2 1 C1.67 6.28 1.34 11.56 1 17 C0.01 17 -0.98 17 -2 17 C-2 13.37 -2 9.74 -2 6 C-1.67 6 -1.34 6 -1 6 C-0.67 4.02 -0.34 2.04 0 0 Z " fill="#98A9E5" transform="translate(236,448)"/>
<path d="M0 0 C0.99 0.33 1.98 0.66 3 1 C3.14308594 1.63421875 3.28617188 2.2684375 3.43359375 2.921875 C3.80198574 5.15725162 3.80198574 5.15725162 5.84765625 6.265625 C6.57855469 6.59046875 7.30945313 6.9153125 8.0625 7.25 C8.79597656 7.58515625 9.52945313 7.9203125 10.28515625 8.265625 C11.13400391 8.62914062 11.13400391 8.62914062 12 9 C12 9.99 12 10.98 12 12 C11.01 12.33 10.02 12.66 9 13 C8.7525 12.38125 8.505 11.7625 8.25 11.125 C7.19750102 8.87652198 7.19750102 8.87652198 5.125 8.125 C2.02113536 6.48177754 0.79306226 3.94574515 -1 1 C-0.67 0.67 -0.34 0.34 0 0 Z " fill="#6D8CFB" transform="translate(172,306)"/>
<path d="M0 0 C1.98 0 3.96 0 6 0 C6 1.32 6 2.64 6 4 C6.99 4.33 7.98 4.66 9 5 C9 5.66 9 6.32 9 7 C9.99 7.33 10.98 7.66 12 8 C11.67 9.32 11.34 10.64 11 12 C9.16364422 10.19047409 7.33083792 8.37759362 5.5 6.5625 C4.97535156 6.04623047 4.45070313 5.52996094 3.91015625 4.99804688 C2.58775448 3.68423213 1.29164432 2.34406495 0 1 C0 0.67 0 0.34 0 0 Z " fill="#C5B6EA" transform="translate(308,268)"/>
<path d="M0 0 C3.96 0.33 7.92 0.66 12 1 C12 1.99 12 2.98 12 4 C10.37675914 4.22162329 8.751279 4.42689803 7.125 4.625 C5.76761719 4.79902344 5.76761719 4.79902344 4.3828125 4.9765625 C3.59648437 4.98429688 2.81015625 4.99203125 2 5 C1.34 4.34 0.68 3.68 0 3 C0 2.01 0 1.02 0 0 Z " fill="#D4E4F7" transform="translate(448,233)"/>
<path d="M0 0 C2.31 0.33 4.62 0.66 7 1 C7 1.66 7 2.32 7 3 C9.94729537 4.15811388 9.94729537 4.15811388 13 4 C12.814375 4.61875 12.62875 5.2375 12.4375 5.875 C11.76313824 8.04160178 11.76313824 8.04160178 13 10 C9.74035658 8.51222697 7.06830707 6.64333184 4.25 4.4375 C3.45078125 3.81746094 2.6515625 3.19742188 1.828125 2.55859375 C1.22484375 2.04425781 0.6215625 1.52992188 0 1 C0 0.67 0 0.34 0 0 Z " fill="#C53749" transform="translate(307,129)"/>
<path d="M0 0 C1.1055189 0.93590504 2.20935453 1.87379858 3.3125 2.8125 C3.92738281 3.33457031 4.54226563 3.85664063 5.17578125 4.39453125 C8.66719556 7.46727489 8.66719556 7.46727489 10 9 C9.6875 11.1875 9.6875 11.1875 9 13 C8.67 11.68 8.34 10.36 8 9 C5.03 8.505 5.03 8.505 2 8 C1.855625 7.236875 1.71125 6.47375 1.5625 5.6875 C1.0367406 2.91827092 1.0367406 2.91827092 0 0 Z " fill="#AA9BE1" transform="translate(276,316)"/>
<path d="M0 0 C0.66 0.33 1.32 0.66 2 1 C0.2758698 2.29838176 -1.45453232 3.58843747 -3.1875 4.875 C-4.63189453 5.95394531 -4.63189453 5.95394531 -6.10546875 7.0546875 C-8.71128675 8.80596599 -11.04792144 9.97459794 -14 11 C-12.625 8.5 -12.625 8.5 -11 6 C-10.34 6 -9.68 6 -9 6 C-9 5.34 -9 4.68 -9 4 C-7.6078125 3.566875 -7.6078125 3.566875 -6.1875 3.125 C-2.90208333 2.1125 -2.90208333 2.1125 0 0 Z " fill="#C23A4A" transform="translate(343,375)"/>
<path d="M0 0 C2.375 0.25 2.375 0.25 5 1 C7.32013177 4.17491716 7.98853939 8.2431463 9 12 C5.74483572 8.83525695 2.67991207 5.67247209 0 2 C0 1.34 0 0.68 0 0 Z " fill="#C4364B" transform="translate(89,336)"/>
<path d="M0 0 C0 3.95875396 -1.21313946 6.49009536 -3 10 C-5.1875 11.4375 -5.1875 11.4375 -7 12 C-7 12.99 -7 13.98 -7 15 C-7.66 15 -8.32 15 -9 15 C-7.61219205 11.10993227 -5.7847773 8.03441292 -3.375 4.6875 C-2.74335937 3.80449219 -2.11171875 2.92148438 -1.4609375 2.01171875 C-0.97882813 1.34785156 -0.49671875 0.68398437 0 0 Z " fill="#C6384E" transform="translate(92,129)"/>
<path d="M0 0 C0.33 0 0.66 0 1 0 C1.3690205 14.78132118 1.3690205 14.78132118 -1 21 C-1.33 21 -1.66 21 -2 21 C-2.24091535 13.7725395 -1.34495828 7.09705662 0 0 Z " fill="#C4374A" transform="translate(60,201)"/>
<path d="M0 0 C5.29012124 4.40843437 10.18808428 9.07559794 15 14 C14.67 14.66 14.34 15.32 14 16 C13.37351563 15.36191406 12.74703125 14.72382813 12.1015625 14.06640625 C11.28429687 13.24011719 10.46703125 12.41382813 9.625 11.5625 C8.81289062 10.73878906 8.00078125 9.91507813 7.1640625 9.06640625 C5.17651485 6.96565328 5.17651485 6.96565328 3 6 C3 5.34 3 4.68 3 4 C2.01 3.67 1.02 3.34 0 3 C0 2.01 0 1.02 0 0 Z " fill="#B94353" transform="translate(170,130)"/>
<path d="M0 0 C-2.93301771 2.27138348 -5.95068793 4.26869942 -9.125 6.1875 C-9.99382812 6.71730469 -10.86265625 7.24710937 -11.7578125 7.79296875 C-14 9 -14 9 -16 9 C-16 8.01 -16 7.02 -16 6 C-14.68 6 -13.36 6 -12 6 C-12 5.34 -12 4.68 -12 4 C-11.01 4 -10.02 4 -9 4 C-9 3.34 -9 2.68 -9 2 C-5.5647952 -0.29013653 -4.014669 -0.17842973 0 0 Z " fill="#C13B4E" transform="translate(182,119)"/>
<path d="M0 0 C0.66 0.33 1.32 0.66 2 1 C-1.77342234 5.0878742 -3.82836735 6.86872381 -9.359375 7.09765625 C-10.14828125 7.08605469 -10.9371875 7.07445312 -11.75 7.0625 C-12.54921875 7.05347656 -13.3484375 7.04445313 -14.171875 7.03515625 C-14.77515625 7.02355469 -15.3784375 7.01195312 -16 7 C-16 6.67 -16 6.34 -16 6 C-14.865625 5.855625 -13.73125 5.71125 -12.5625 5.5625 C-9.19222799 5.38828522 -9.19222799 5.38828522 -8 4 C-6.00041636 3.95919217 -3.99954746 3.95745644 -2 4 C-2 3.01 -2 2.02 -2 1 C-1.34 0.67 -0.68 0.34 0 0 Z " fill="#978FDF" transform="translate(265,355)"/>
<path d="M0 0 C0.99 0.495 0.99 0.495 2 1 C2 1.66 2 2.32 2 3 C2.66 3 3.32 3 4 3 C4.66 4.98 5.32 6.96 6 9 C6.99 9 7.98 9 9 9 C9.33 11.31 9.66 13.62 10 16 C7.00123678 13.19680829 4.83677273 10.40565083 2.75 6.875 C2.22921875 6.00617188 1.7084375 5.13734375 1.171875 4.2421875 C0 2 0 2 0 0 Z " fill="#BD3A4C" transform="translate(79,320)"/>
<path d="M0 0 C4.13621084 3.3810038 7.81316569 6.66590534 11 11 C9.35 10.67 7.7 10.34 6 10 C6 9.01 6 8.02 6 7 C4.02 6.34 2.04 5.68 0 5 C0 3.35 0 1.7 0 0 Z " fill="#A99DE4" transform="translate(231,271)"/>
<path d="M0 0 C-3.10085571 2.06723714 -3.72931681 2.24497423 -7.23046875 2.1953125 C-8.43413086 2.18564453 -8.43413086 2.18564453 -9.66210938 2.17578125 C-10.49548828 2.15902344 -11.32886719 2.14226562 -12.1875 2.125 C-13.03248047 2.11597656 -13.87746094 2.10695312 -14.74804688 2.09765625 C-16.83215243 2.07410703 -18.91611217 2.03823647 -21 2 C-21 1.67 -21 1.34 -21 1 C-18.25091555 0.63685675 -15.50116549 0.28419159 -12.75 -0.0625 C-11.97269531 -0.16626953 -11.19539063 -0.27003906 -10.39453125 -0.37695312 C-9.64042969 -0.47041016 -8.88632812 -0.56386719 -8.109375 -0.66015625 C-7.41811523 -0.74918213 -6.72685547 -0.83820801 -6.01464844 -0.92993164 C-3.82569152 -1.00606235 -2.08994187 -0.6249336 0 0 Z " fill="#7990E1" transform="translate(42,232)"/>
<path d="M0 0 C5.27112904 2.79692561 9.59398317 5.98235547 14 10 C10.30581799 10 8.22163822 8.71820705 5 7 C5 6.01 5 5.02 5 4 C3.35 4 1.7 4 0 4 C0 2.68 0 1.36 0 0 Z " fill="#C0364C" transform="translate(336,89)"/>
<path d="M0 0 C4.52615993 3.67832017 8.39424999 7.41086363 12 12 C8.625 11.3125 8.625 11.3125 5 10 C3.75 7.5625 3.75 7.5625 3 5 C2.01904252 3.98131338 1.02297922 2.97648017 0 2 C0 1.34 0 0.68 0 0 Z " fill="#C3384B" transform="translate(139,320)"/>
<path d="M0 0 C4.8 3.44615385 4.8 3.44615385 5.8125 6.25 C5.874375 6.8275 5.93625 7.405 6 8 C4.02 8 2.04 8 0 8 C0 5.36 0 2.72 0 0 Z " fill="#98A4F1" transform="translate(160,200)"/>
<path d="M0 0 C0.66 0.33 1.32 0.66 2 1 C1.34 2.32 0.68 3.64 0 5 C-0.99 5 -1.98 5 -3 5 C-3.33 5.99 -3.66 6.98 -4 8 C-4.99 8 -5.98 8 -7 8 C-7 8.66 -7 9.32 -7 10 C-7.99 9.67 -8.98 9.34 -10 9 C-6.7 6.03 -3.4 3.06 0 0 Z " fill="#C6374D" transform="translate(122,97)"/>
<path d="M0 0 C3.5786304 1.65167557 6.74820188 3.78286492 10 6 C7.83032311 6.95465783 6.43671207 7.14401212 4.17578125 6.3984375 C2.4315257 5.64129615 0.71372869 4.82390802 -1 4 C-0.67 2.68 -0.34 1.36 0 0 Z " fill="#C43149" transform="translate(156,336)"/>
<path d="M0 0 C0.66 0 1.32 0 2 0 C2.34292736 4.16620257 1.66129845 6.06553065 -0.9375 9.3125 C-1.48277344 10.00988281 -2.02804687 10.70726562 -2.58984375 11.42578125 C-3.05519531 11.94527344 -3.52054687 12.46476562 -4 13 C-4.33 13 -4.66 13 -5 13 C-5.3125 10.8125 -5.3125 10.8125 -5 8 C-3.37446717 6.29319053 -1.70884005 4.62339805 0 3 C0 2.01 0 1.02 0 0 Z " fill="#9BAFF4" transform="translate(282,325)"/>
<path d="M0 0 C2.31 0 4.62 0 7 0 C7.33 2.64 7.66 5.28 8 8 C6.85073734 7.04578192 5.70569459 6.08647955 4.5625 5.125 C3.92441406 4.59132812 3.28632813 4.05765625 2.62890625 3.5078125 C1 2 1 2 0 0 Z " fill="#C8395A" transform="translate(199,238)"/>
<path d="M0 0 C2.31 0 4.62 0 7 0 C7.33 2.64 7.66 5.28 8 8 C6.85073734 7.04578192 5.70569459 6.08647955 4.5625 5.125 C3.92441406 4.59132812 3.28632813 4.05765625 2.62890625 3.5078125 C1 2 1 2 0 0 Z " fill="#C8395A" transform="translate(183,222)"/>
<path d="M0 0 C2.31 0 4.62 0 7 0 C7.33 2.64 7.66 5.28 8 8 C6.85073734 7.04578192 5.70569459 6.08647955 4.5625 5.125 C3.92441406 4.59132812 3.28632813 4.05765625 2.62890625 3.5078125 C1 2 1 2 0 0 Z " fill="#C8395A" transform="translate(167,206)"/>
<path d="M0 0 C1.14926266 0.95421808 2.29430541 1.91352045 3.4375 2.875 C4.07558594 3.40867188 4.71367187 3.94234375 5.37109375 4.4921875 C7 6 7 6 8 8 C5.03 7.505 5.03 7.505 2 7 C2 6.34 2 5.68 2 5 C1.01 5 0.02 5 -1 5 C-0.67 3.35 -0.34 1.7 0 0 Z " fill="#CA3B55" transform="translate(214,175)"/>
<path d="M0 0 C0.6875 1.8125 0.6875 1.8125 1 4 C-0.82037208 6.38592457 -3.23884953 7.97806476 -5.6875 9.6875 C-6.62142578 10.34298828 -6.62142578 10.34298828 -7.57421875 11.01171875 C-8.04472656 11.33785156 -8.51523438 11.66398438 -9 12 C-7.55575365 8.76138697 -5.74227753 6.38030837 -3.375 3.75 C-2.74335937 3.04359375 -2.11171875 2.3371875 -1.4609375 1.609375 C-0.97882813 1.07828125 -0.49671875 0.5471875 0 0 Z " fill="#C4384F" transform="translate(102,117)"/>
<path d="M0 0 C6.90546218 6.54201681 6.90546218 6.54201681 7.125 12.25 C7.08375 13.1575 7.0425 14.065 7 15 C3.69383716 11.19791273 0 5.16418515 0 0 Z " fill="#C03A49" transform="translate(70,301)"/>
<path d="M0 0 C0.33 0 0.66 0 1 0 C1.25 6.625 1.25 6.625 -1 10 C-3.125 10.6875 -3.125 10.6875 -5 11 C-3.55049545 7.2089881 -1.84827434 3.6125362 0 0 Z " fill="#C23444" transform="translate(350,290)"/>
<path d="M0 0 C0.66 0.33 1.32 0.66 2 1 C1.34 6.61 0.68 12.22 0 18 C-0.33 18 -0.66 18 -1 18 C-1.77034555 12.10981941 -2.24237456 6.83916045 -1 1 C-0.67 0.67 -0.34 0.34 0 0 Z " fill="#C33853" transform="translate(412,243)"/>
<path d="M0 0 C2.31 0.33 4.62 0.66 7 1 C6.34 1.66 5.68 2.32 5 3 C4.01 3 3.02 3 2 3 C1.97301811 4.62490954 1.95361243 6.24994633 1.9375 7.875 C1.92589844 8.77992188 1.91429687 9.68484375 1.90234375 10.6171875 C1.83750743 13.0168585 1.83750743 13.0168585 3 15 C2.01 14.67 1.02 14.34 0 14 C0 9.38 0 4.76 0 0 Z " fill="#CEC2DF" transform="translate(413,228)"/>
<path d="M0 0 C1.14926266 0.95421808 2.29430541 1.91352045 3.4375 2.875 C4.07558594 3.40867188 4.71367187 3.94234375 5.37109375 4.4921875 C7 6 7 6 8 8 C5.03 7.505 5.03 7.505 2 7 C2 6.34 2 5.68 2 5 C1.01 4.67 0.02 4.34 -1 4 C-0.67 2.68 -0.34 1.36 0 0 Z " fill="#C93B56" transform="translate(246,207)"/>
<path d="M0 0 C0.66 0 1.32 0 2 0 C0.68938409 4.23429756 -0.94356259 8.07407404 -3 12 C-4.0625 10.1875 -4.0625 10.1875 -5 8 C-4 5 -4 5 -2 2 C-1.34 2 -0.68 2 0 2 C0 1.34 0 0.68 0 0 Z " fill="#C63549" transform="translate(121,174)"/>
<path d="M0 0 C0.99 0 1.98 0 3 0 C4.3927289 1.61736259 5.71937515 3.2925002 7 5 C8.31494512 6.35147138 9.64264858 7.69112542 11 9 C10.67 9.99 10.34 10.98 10 12 C8.33032474 10.19019128 6.66417692 8.3773524 5 6.5625 C4.28457031 5.7880957 4.28457031 5.7880957 3.5546875 4.99804688 C0 1.11328125 0 1.11328125 0 0 Z " fill="#869AEA" transform="translate(170,309)"/>
<path d="M0 0 C2.6815279 3.07692746 3.42087807 5.19734663 3.6875 9.25 C3.75324219 10.14203125 3.81898437 11.0340625 3.88671875 11.953125 C3.92410156 12.62859375 3.96148437 13.3040625 4 14 C2 13 2 13 0.875 10.9375 C-0.2583306 7.13274727 -0.13434296 3.9631172 0 0 Z " fill="#BA4263" transform="translate(109,260)"/>
<path d="M0 0 C4.13621084 3.3810038 7.81316569 6.66590534 11 11 C9.68 11 8.36 11 7 11 C6.67 10.01 6.34 9.02 6 8 C5.01 7.67 4.02 7.34 3 7 C0 2.66666667 0 2.66666667 0 0 Z " fill="#C4384C" transform="translate(353,102)"/>
<path d="M0 0 C0.66 0 1.32 0 2 0 C1.01 5.61 0.02 11.22 -1 17 C-1.33 17 -1.66 17 -2 17 C-1.85978195 14.35375716 -1.71310224 11.70815422 -1.5625 9.0625 C-1.52318359 8.30775391 -1.48386719 7.55300781 -1.44335938 6.77539062 C-1.11328125 1.11328125 -1.11328125 1.11328125 0 0 Z " fill="#698CE2" transform="translate(241,415)"/>
<path d="M0 0 C2.33294775 -0.04241723 4.66702567 -0.04092937 7 0 C7.33 0.33 7.66 0.66 8 1 C9.51469448 1.23192865 11.03754562 1.41215238 12.5625 1.5625 C13.38878906 1.64628906 14.21507812 1.73007812 15.06640625 1.81640625 C15.70449219 1.87699219 16.34257812 1.93757813 17 2 C17 2.33 17 2.66 17 3 C15.10448978 3.05441656 13.2085208 3.09298035 11.3125 3.125 C10.25675781 3.14820313 9.20101562 3.17140625 8.11328125 3.1953125 C4.97748141 2.99858729 2.82354627 2.33057654 0 1 C0 0.67 0 0.34 0 0 Z " fill="#887EDE" transform="translate(207,359)"/>
<path d="M0 0 C2.8125 0.5625 2.8125 0.5625 6 2 C7.44088563 4.28536073 8.13569208 6.40707624 9 9 C4.44984107 7.48328036 2.49942736 3.83108947 0 0 Z " fill="#C4304B" transform="translate(103,354)"/>
<path d="M0 0 C0.66 0.33 1.32 0.66 2 1 C0.8125 3.4375 0.8125 3.4375 -1 6 C-3.6875 6.8125 -3.6875 6.8125 -6 7 C-6.33 6.01 -6.66 5.02 -7 4 C-1.7265625 0.77734375 -1.7265625 0.77734375 0 0 Z " fill="#C83242" transform="translate(301,344)"/>
<path d="M0 0 C7.48291572 6.15034169 7.48291572 6.15034169 10 10 C8.68 9.67 7.36 9.34 6 9 C6 8.34 6 7.68 6 7 C5.01 7 4.02 7 3 7 C3 6.01 3 5.02 3 4 C2.01 3.67 1.02 3.34 0 3 C0 2.01 0 1.02 0 0 Z " fill="#AB9DE0" transform="translate(250,290)"/>
<path d="M0 0 C3.94727588 -0.17942163 6.5980513 -0.09350689 10 2 C10 3.32 10 4.64 10 6 C6.66666667 4.33333333 3.33333333 2.66666667 0 1 C0 0.67 0 0.34 0 0 Z " fill="#6B8AF9" transform="translate(118,266)"/>
<path d="M0 0 C2.31 1.98 4.62 3.96 7 6 C3 8 3 8 1 8 C0.67 5.36 0.34 2.72 0 0 Z " fill="#CD3959" transform="translate(187,148)"/>
<path d="M0 0 C2.12438339 -0.08078641 4.2496323 -0.13909141 6.375 -0.1875 C7.55835938 -0.22230469 8.74171875 -0.25710937 9.9609375 -0.29296875 C11.46527344 -0.14794922 11.46527344 -0.14794922 13 0 C13.66 0.99 14.32 1.98 15 3 C4.44191344 2.03644647 4.44191344 2.03644647 0 1 C0 0.67 0 0.34 0 0 Z " fill="#C14A60" transform="translate(248,107)"/>
<path d="M0 0 C4.13621084 3.3810038 7.81316569 6.66590534 11 11 C9 10 7 9 5 8 C5 7.34 5 6.68 5 6 C4.360625 5.7525 3.72125 5.505 3.0625 5.25 C1 4 1 4 0.37109375 1.921875 C0.24863281 1.28765625 0.12617188 0.6534375 0 0 Z " fill="#BB3D4E" transform="translate(328,288)"/>
<path d="M0 0 C5.15464734 0.48324819 8.81550319 3.18610761 13 6 C12.67 6.66 12.34 7.32 12 8 C9.99743426 6.85865673 7.99800203 5.71181367 6 4.5625 C4.88625 3.92441406 3.7725 3.28632813 2.625 2.62890625 C1.75875 2.09136719 0.8925 1.55382812 0 1 C0 0.67 0 0.34 0 0 Z " fill="#90A0EC" transform="translate(115,266)"/>
<path d="M0 0 C1.14926266 0.95421808 2.29430541 1.91352045 3.4375 2.875 C4.07558594 3.40867187 4.71367187 3.94234375 5.37109375 4.4921875 C7 6 7 6 8 8 C6.35 8.33 4.7 8.66 3 9 C3.33 7.68 3.66 6.36 4 5 C2.68 4.67 1.36 4.34 0 4 C0 2.68 0 1.36 0 0 Z " fill="#C63D57" transform="translate(306,267)"/>
<path d="M0 0 C1.14926266 0.95421808 2.29430541 1.91352045 3.4375 2.875 C4.07558594 3.40867187 4.71367187 3.94234375 5.37109375 4.4921875 C7 6 7 6 8 8 C5.69 7.67 3.38 7.34 1 7 C0.67 4.69 0.34 2.38 0 0 Z " fill="#C73D58" transform="translate(292,253)"/>
<path d="M0 0 C1.14926266 0.95421808 2.29430541 1.91352045 3.4375 2.875 C4.07558594 3.40867188 4.71367187 3.94234375 5.37109375 4.4921875 C7 6 7 6 8 8 C5.69 7.67 3.38 7.34 1 7 C0.67 4.69 0.34 2.38 0 0 Z " fill="#C73D58" transform="translate(276,237)"/>
<path d="M0 0 C1.22589844 0.01353516 1.22589844 0.01353516 2.4765625 0.02734375 C3.41628906 0.04474609 3.41628906 0.04474609 4.375 0.0625 C4.045 1.0525 3.715 2.0425 3.375 3.0625 C-2.6796875 3.2578125 -2.6796875 3.2578125 -4.625 3.0625 C-5.285 2.4025 -5.945 1.7425 -6.625 1.0625 C-4.21954362 -0.14022819 -2.67503047 -0.03821472 0 0 Z " fill="#95ABE0" transform="translate(13.625,233.9375)"/>
<path d="M0 0 C1.32 0 2.64 0 4 0 C4 1.32 4 2.64 4 4 C4.66 4.33 5.32 4.66 6 5 C6.40729228 7.32156597 6.74438677 9.6568787 7 12 C4.39954125 9.6975881 3.15260817 7.50103323 1.8125 4.3125 C1.46832031 3.50425781 1.12414062 2.69601562 0.76953125 1.86328125 C0.51558594 1.24839844 0.26164063 0.63351562 0 0 Z " fill="#6B8AF6" transform="translate(200,345)"/>
<path d="M0 0 C1.65 0 3.3 0 5 0 C5.66 1.32 6.32 2.64 7 4 C6.01 5.485 6.01 5.485 5 7 C4.34 6.01 3.68 5.02 3 4 C2.01 3.67 1.02 3.34 0 3 C0 2.01 0 1.02 0 0 Z " fill="#698DFD" transform="translate(161,296)"/>
<path d="M0 0 C1.65 0 3.3 0 5 0 C5 0.66 5 1.32 5 2 C6.65 2.33 8.3 2.66 10 3 C9.01 3.99 8.02 4.98 7 6 C3.63279613 4.60667426 2.0140476 3.0210714 0 0 Z " fill="#C1AFDC" transform="translate(320,280)"/>
<path d="M0 0 C1.12894876 0.93274109 2.25300876 1.87140122 3.375 2.8125 C4.00148438 3.33457031 4.62796875 3.85664063 5.2734375 4.39453125 C7 6 7 6 9 9 C7.35 8.67 5.7 8.34 4 8 C4 7.01 4 6.02 4 5 C2.68 4.67 1.36 4.34 0 4 C0 2.68 0 1.36 0 0 Z " fill="#C33F5E" transform="translate(316,277)"/>
<path d="M0 0 C1 3 1 3 -0.125 5.5625 C-2.23794891 8.30933359 -3.72518425 9.02640613 -7 10 C-7.33 9.34 -7.66 8.68 -8 8 C-6.68 8 -5.36 8 -4 8 C-3.566875 6.8553125 -3.566875 6.8553125 -3.125 5.6875 C-2 3 -2 3 0 0 Z " fill="#CDC9ED" transform="translate(360,258)"/>
<path d="M0 0 C1.1446875 0.495 1.1446875 0.495 2.3125 1 C4.99069135 2.17436686 4.99069135 2.17436686 8 2 C8 3.98 8 5.96 8 8 C6.85073734 7.04578192 5.70569459 6.08647955 4.5625 5.125 C3.92441406 4.59132813 3.28632813 4.05765625 2.62890625 3.5078125 C1 2 1 2 0 0 Z " fill="#C6B6EA" transform="translate(300,260)"/>
<path d="M0 0 C1.1446875 0.495 1.1446875 0.495 2.3125 1 C4.99069135 2.17436686 4.99069135 2.17436686 8 2 C8 3.98 8 5.96 8 8 C6.85073734 7.04578192 5.70569459 6.08647955 4.5625 5.125 C3.92441406 4.59132812 3.28632813 4.05765625 2.62890625 3.5078125 C1 2 1 2 0 0 Z " fill="#C6B6EA" transform="translate(284,244)"/>
<path d="M0 0 C1.1446875 0.495 1.1446875 0.495 2.3125 1 C4.99069135 2.17436686 4.99069135 2.17436686 8 2 C8 3.98 8 5.96 8 8 C6.85073734 7.04578192 5.70569459 6.08647955 4.5625 5.125 C3.92441406 4.59132812 3.28632813 4.05765625 2.62890625 3.5078125 C1 2 1 2 0 0 Z " fill="#C6B6EA" transform="translate(268,228)"/>
<path d="M0 0 C1.12894876 0.93274109 2.25300876 1.87140122 3.375 2.8125 C4.00148437 3.33457031 4.62796875 3.85664063 5.2734375 4.39453125 C7 6 7 6 9 9 C6.0280615 7.87548273 3.66559313 6.77706209 1 5 C0.3125 2.375 0.3125 2.375 0 0 Z " fill="#A99EE1" transform="translate(151,191)"/>
<path d="M0 0 C2.31 0 4.62 0 7 0 C6.67 1.98 6.34 3.96 6 6 C3.97945196 4.35830472 1.97956942 2.69088222 0 1 C0 0.67 0 0.34 0 0 Z " fill="#C93959" transform="translate(215,254)"/>
<path d="M0 0 C2.31 0 4.62 0 7 0 C7 0.66 7 1.32 7 2 C6.2575 2.061875 5.515 2.12375 4.75 2.1875 C1.1814261 3.24185138 0.07754772 4.99909773 -2 8 C-2 6.68 -2 5.36 -2 4 C-1.34 4 -0.68 4 0 4 C0 2.68 0 1.36 0 0 Z " fill="#CC3246" transform="translate(125,166)"/>
<path d="M0 0 C2.31 0.33 4.62 0.66 7 1 C5.8125 2.5625 5.8125 2.5625 4 4 C1.3125 3.6875 1.3125 3.6875 -1 3 C-0.67 2.01 -0.34 1.02 0 0 Z " fill="#D43248" transform="translate(322,385)"/>
<path d="M0 0 C5.75 0.75 5.75 0.75 8 3 C8.66 2.67 9.32 2.34 10 2 C10 3.32 10 4.64 10 6 C6.40992874 4.66654496 3.20429093 3.1056769 0 1 C0 0.67 0 0.34 0 0 Z " fill="#BF384C" transform="translate(138,384)"/>
<path d="M0 0 C0.33 0.66 0.66 1.32 1 2 C-0.62339805 3.70884005 -2.29319053 5.37446717 -4 7 C-4.66 7 -5.32 7 -6 7 C-4.52307692 2.32307692 -4.52307692 2.32307692 -1.875 0.6875 C-1.25625 0.460625 -0.6375 0.23375 0 0 Z " fill="#CF3348" transform="translate(357,283)"/>
<path d="M0 0 C0.99 0.33 1.98 0.66 3 1 C-1.455 3.97 -1.455 3.97 -6 7 C-6.66 6.67 -7.32 6.34 -8 6 C-2.25 1.125 -2.25 1.125 0 0 Z " fill="#C9D4F5" transform="translate(349,268)"/>
<path d="M0 0 C0.33 0.66 0.66 1.32 1 2 C-0.0725 1.979375 -1.145 1.95875 -2.25 1.9375 C-5.14790424 1.9857984 -7.28612141 2.13155885 -10 3 C-9.67 2.01 -9.34 1.02 -9 0 C-5.88173308 -1.55913346 -3.32926126 -0.66585225 0 0 Z " fill="#97A3F6" transform="translate(150,189)"/>
<path d="M0 0 C0.66 0.33 1.32 0.66 2 1 C1.67 3.97 1.34 6.94 1 10 C0.01 9.67 -0.98 9.34 -2 9 C-1.34 6.03 -0.68 3.06 0 0 Z " fill="#CBDCF6" transform="translate(230,44)"/>
<path d="M0 0 C1.32 0.33 2.64 0.66 4 1 C1.69 3.31 -0.62 5.62 -3 8 C-3.33 7.34 -3.66 6.68 -4 6 C-3 3 -3 3 0 1 C0 0.67 0 0.34 0 0 Z " fill="#C13E4F" transform="translate(357,361)"/>
<path d="M0 0 C1.32 0.33 2.64 0.66 4 1 C4 1.66 4 2.32 4 3 C4.66 3 5.32 3 6 3 C7.625 5 7.625 5 9 7 C8.67 7.66 8.34 8.32 8 9 C6.66368764 7.6905332 5.33102075 6.37734515 4 5.0625 C3.2575 4.33160156 2.515 3.60070312 1.75 2.84765625 C0 1 0 1 0 0 Z " fill="#BB3B4E" transform="translate(290,330)"/>
<path d="M0 0 C2.31 0.66 4.62 1.32 7 2 C7 2.66 7 3.32 7 4 C5.35 4.66 3.7 5.32 2 6 C1.34 4.02 0.68 2.04 0 0 Z " fill="#698DFA" transform="translate(185,321)"/>
<path d="M0 0 C1.98 1.65 3.96 3.3 6 5 C2.86650268 6.04449911 2.01031744 5.93423645 -1 5 C-0.67 3.35 -0.34 1.7 0 0 Z " fill="#C83C57" transform="translate(262,223)"/>
<path d="M0 0 C1.66611905 -0.042721 3.33382885 -0.04063832 5 0 C6 1 6 1 6.0625 3.5625 C6.041875 4.366875 6.02125 5.17125 6 6 C3.97945196 4.35830472 1.97956942 2.69088222 0 1 C0 0.67 0 0.34 0 0 Z " fill="#C63A5B" transform="translate(153,192)"/>
<path d="M0 0 C0.66 1.32 1.32 2.64 2 4 C1 7 1 7 -3 9 C-2.01 6.03 -1.02 3.06 0 0 Z " fill="#C9364C" transform="translate(72,163)"/>
<path d="M0 0 C0 0.66 0 1.32 0 2 C-0.66 2 -1.32 2 -2 2 C-2.33 2.99 -2.66 3.98 -3 5 C-3.99 5 -4.98 5 -6 5 C-6.33 5.66 -6.66 6.32 -7 7 C-7.66 6.34 -8.32 5.68 -9 5 C-7.87926138 4.16094435 -6.75325453 3.32892169 -5.625 2.5 C-4.99851563 2.0359375 -4.37203125 1.571875 -3.7265625 1.09375 C-2 0 -2 0 0 0 Z " fill="#C6374D" transform="translate(135,89)"/>
<path d="M0 0 C1.98 0 3.96 0 6 0 C6.33 0.66 6.66 1.32 7 2 C6.0625 4.125 6.0625 4.125 5 6 C3.35 4.02 1.7 2.04 0 0 Z " fill="#C6395D" transform="translate(265,304)"/>
<path d="M0 0 C1.98 0 3.96 0 6 0 C6.33 0.66 6.66 1.32 7 2 C6.0625 4.125 6.0625 4.125 5 6 C3.35 4.02 1.7 2.04 0 0 Z " fill="#C73A5D" transform="translate(249,288)"/>
<path d="M0 0 C1.98 0 3.96 0 6 0 C6.33 0.66 6.66 1.32 7 2 C6.0625 4.125 6.0625 4.125 5 6 C3.35 4.02 1.7 2.04 0 0 Z " fill="#C73A5D" transform="translate(233,272)"/>
<path d="M0 0 C0.33 0 0.66 0 1 0 C1.25 3.25 1.25 3.25 1 7 C-0.32 8.32 -1.64 9.64 -3 11 C-2.01 7.37 -1.02 3.74 0 0 Z " fill="#B73848" transform="translate(358,269)"/>
<path d="M0 0 C2.2344598 4.03292745 2.54496743 7.44967434 3 12 C2.01 11.34 1.02 10.68 0 10 C-0.29296875 7.6171875 -0.29296875 7.6171875 -0.1875 4.875 C-0.16042969 3.96492188 -0.13335937 3.05484375 -0.10546875 2.1171875 C-0.07066406 1.41851562 -0.03585938 0.71984375 0 0 Z " fill="#7D84E9" transform="translate(110,253)"/>
<path d="M0 0 C2.475 0.495 2.475 0.495 5 1 C5.33 1.99 5.66 2.98 6 4 C4.02 4 2.04 4 0 4 C0 2.68 0 1.36 0 0 Z " fill="#8DA9FB" transform="translate(208,252)"/>
<path d="M0 0 C2.475 0.495 2.475 0.495 5 1 C5.33 1.99 5.66 2.98 6 4 C4.02 4 2.04 4 0 4 C0 2.68 0 1.36 0 0 Z " fill="#8DA9FB" transform="translate(192,236)"/>
<path d="M0 0 C2.475 0.495 2.475 0.495 5 1 C5.33 1.99 5.66 2.98 6 4 C4.02 4 2.04 4 0 4 C0 2.68 0 1.36 0 0 Z " fill="#8DA9FB" transform="translate(176,220)"/>
<path d="M0 0 C-4.62197306 2.21854707 -7.76824163 3.38281159 -13 3 C-8.83099908 0.22066605 -4.8978425 -1.63261417 0 0 Z " fill="#BC3C4B" transform="translate(192,64)"/>
<path d="M0 0 C0.99 0.33 1.98 0.66 3 1 C3 2.65 3 4.3 3 6 C2.01 6 1.02 6 0 6 C0 4.02 0 2.04 0 0 Z " fill="#B1BAE3" transform="translate(234,459)"/>
<path d="M0 0 C1.98 0 3.96 0 6 0 C6 1.98 6 3.96 6 6 C3.97945196 4.35830472 1.97956942 2.69088222 0 1 C0 0.67 0 0.34 0 0 Z " fill="#C6B5E9" transform="translate(228,188)"/>
</svg>
